<svg id="Capa_1" enable-background="new 0 0 511.99 511.99" height="512" viewBox="0 0 511.99 511.99" width="512" xmlns="http://www.w3.org/2000/svg"><g><path d="m485.285 57.678h-458.579c-10.607 0-19.206 8.598-19.206 19.205v40.213c0-10.607 8.599 30.794 19.206 30.794h458.579c10.607 0 19.206-41.401 19.206-30.794v-40.213c0-10.607-8.599-19.205-19.206-19.205z" fill="#365e7d"/><path d="m485.285 80.411h-458.579c-10.607 0-19.206 8.599-19.206 19.205v17.48c0-10.607 8.599 20.794 19.206 20.794h458.579c10.607 0 19.206-31.401 19.206-20.794v-17.48c0-10.606-8.599-19.205-19.206-19.205z" fill="#2b4d66"/><path d="m485.285 97.89h-458.579c-10.607 0-19.206 8.599-19.206 19.206v275.117c0 10.607 8.599 19.206 19.206 19.206h76.301c2.161 0 4.159 1.153 5.239 3.025l21.272 36.844c2.329 4.033 8.15 4.033 10.479 0l21.272-36.844c1.081-1.872 3.078-3.025 5.239-3.025h318.776c10.607 0 19.206-8.599 19.206-19.206v-275.117c.001-10.607-8.598-19.206-19.205-19.206z" fill="#d3effb"/><path d="m134.74 414.444-13.247 22.944 8.026 13.901c2.329 4.033 8.15 4.033 10.479 0l21.272-36.844c1.081-1.872 3.078-3.025 5.239-3.025h-26.53c-2.161-.001-4.158 1.152-5.239 3.024z" fill="#b1e4f9"/><path d="m485.285 97.89h-26.53c10.607 0 19.206 8.599 19.206 19.206v275.117c0 10.607-8.599 19.206-19.206 19.206h26.53c10.607 0 19.206-8.599 19.206-19.206v-275.117c0-10.607-8.599-19.206-19.206-19.206z" fill="#b1e4f9"/><g><path d="m310.401 241.399c0-30.497-25.093-55.133-55.758-54.388-28.57.694-51.965 23.78-53.014 52.339-.707 19.245 8.589 36.358 23.096 46.565 3.619 2.547 5.698 6.76 5.698 11.185v21.597h51.146v-21.802c0-4.323 2.049-8.426 5.59-10.905 14.051-9.835 23.242-26.137 23.242-44.591z" fill="#f6e266"/><path d="m254.642 187.011c-2.756.067-5.463.347-8.108.816 25.524 4.489 44.92 26.762 44.92 53.573 0 18.453-9.191 34.756-23.242 44.591-3.286 2.3-4.692 5.253-5.265 8.168-1.133 5.762-6.351 9.816-12.223 9.816h-20.3v14.723h51.146v-21.802c0-4.323 2.049-8.426 5.59-10.905 14.051-9.836 23.242-26.138 23.242-44.591-.001-30.498-25.094-55.134-55.76-54.389z" fill="#ffd064"/><path d="m287.09 318.697h-62.189v22.634c0 11.964 9.699 21.662 21.662 21.662h18.864c11.964 0 21.662-9.699 21.662-21.662v-22.634z" fill="#365e7d"/><path d="m268.143 318.697v22.634c0 11.95-9.676 21.639-21.621 21.661.014 0 .028.001.041.001h18.864c11.964 0 21.662-9.699 21.662-21.662v-22.634z" fill="#2b4d66"/></g><g><path d="m485.285 50.178h-352.8c-4.143 0-7.5 3.357-7.5 7.5s3.357 7.5 7.5 7.5h352.8c6.454 0 11.705 5.251 11.705 11.705v16.216c-3.537-1.732-7.509-2.708-11.705-2.708h-458.579c-4.197 0-8.169.976-11.706 2.708v-16.216c0-6.454 5.251-11.705 11.706-11.705h75.792c4.143 0 7.5-3.357 7.5-7.5s-3.357-7.5-7.5-7.5h-75.792c-14.726 0-26.706 11.979-26.706 26.705v315.33c0 14.726 11.98 26.706 26.706 26.706h75.464l20.854 36.12c2.45 4.241 6.837 6.773 11.734 6.773 4.898 0 9.285-2.532 11.735-6.774l20.854-36.119h67.613c4.143 0 7.5-3.357 7.5-7.5s-3.357-7.5-7.5-7.5h-68.45c-4.825 0-9.322 2.596-11.735 6.775l-20.017 34.669-20.016-34.67c-2.413-4.179-6.91-6.774-11.735-6.774h-76.301c-6.455 0-11.706-5.251-11.706-11.706v-275.117c0-6.454 5.251-11.705 11.706-11.705h458.579c6.454 0 11.705 5.251 11.705 11.705v275.117c0 6.455-5.251 11.706-11.705 11.706h-220.338c-4.143 0-7.5 3.357-7.5 7.5s3.357 7.5 7.5 7.5h220.338c14.726 0 26.705-11.98 26.705-26.706v-315.33c0-14.726-11.979-26.705-26.705-26.705z"/><path d="m217.401 318.697v22.635c0 16.08 13.082 29.162 29.162 29.162h18.864c16.08 0 29.162-13.082 29.162-29.162v-22.635c0-3.457-2.341-6.358-5.521-7.228v-14.574c0-1.933.895-3.713 2.391-4.761 13.158-9.211 22.122-22.927 25.241-38.623.807-4.063-1.832-8.011-5.895-8.818-4.071-.807-8.012 1.832-8.818 5.895-2.361 11.886-9.155 22.276-19.131 29.259-5.503 3.854-8.788 10.227-8.788 17.049v14.302h-10.573v-36.548c0-4.143-3.357-7.5-7.5-7.5s-7.5 3.357-7.5 7.5v36.548h-10.572v-14.098c0-6.931-3.32-13.405-8.883-17.319-13.058-9.188-20.504-24.198-19.917-40.155.908-24.699 20.982-44.517 45.702-45.116.379-.01.756-.014 1.134-.014 19.224 0 36.699 11.873 43.725 29.833 1.508 3.857 5.861 5.765 9.716 4.253 3.858-1.509 5.762-5.858 4.253-9.716-9.452-24.17-33.282-39.956-59.191-39.353-32.63.792-59.129 26.954-60.328 59.562-.773 21.051 9.05 40.854 26.275 52.974 1.574 1.107 2.515 2.996 2.515 5.052v14.37c-3.182.868-5.523 3.77-5.523 7.226zm62.189 7.5v15.135c0 7.809-6.354 14.162-14.162 14.162h-18.864c-7.809 0-14.162-6.354-14.162-14.162v-15.135z"/><path d="m263.495 164.921v-18.605c0-4.143-3.357-7.5-7.5-7.5s-7.5 3.357-7.5 7.5v18.605c0 4.143 3.357 7.5 7.5 7.5s7.5-3.358 7.5-7.5z"/><path d="m315.496 192.674 13.156-13.155c2.93-2.929 2.93-7.678.001-10.606s-7.678-2.93-10.606-.001l-13.156 13.155c-2.93 2.929-2.93 7.678-.001 10.606 1.465 1.465 3.384 2.197 5.304 2.197 1.918 0 3.838-.732 5.302-2.196z"/><path d="m201.797 194.87c1.919 0 3.839-.732 5.304-2.197 2.929-2.929 2.929-7.678-.001-10.606l-13.156-13.155c-2.928-2.928-7.677-2.929-10.606.001-2.929 2.929-2.929 7.678.001 10.606l13.156 13.155c1.463 1.464 3.383 2.196 5.302 2.196z"/></g></g></svg>