<svg id="Layer_1" enable-background="new 0 0 494.007 494.007" height="512" viewBox="0 0 494.007 494.007" width="512" xmlns="http://www.w3.org/2000/svg"><g><g><path d="m96.256 108.093c0-6.606-6.812-12.461-17.309-16.1-4.243-1.471-7.6-4.828-9.071-9.071-3.639-10.497-9.494-17.309-16.1-17.309s-12.461 6.812-16.1 17.309c-1.471 4.243-4.828 7.6-9.071 9.071-10.497 3.639-17.309 9.494-17.309 16.1s6.812 12.461 17.309 16.1c4.243 1.471 7.6 4.828 9.071 9.071 3.639 10.497 9.494 17.309 16.1 17.309s12.461-6.812 16.1-17.309c1.471-4.243 4.828-7.6 9.071-9.071 10.497-3.638 17.309-9.494 17.309-16.1z" fill="#ffc277"/><path d="m461.131 271.55c0-6.606-6.812-12.461-17.309-16.1-4.243-1.471-7.6-4.828-9.071-9.071-3.639-10.497-9.494-17.309-16.1-17.309s-12.461 6.812-16.1 17.309c-1.471 4.243-4.828 7.6-9.071 9.071-10.497 3.639-17.309 9.494-17.309 16.1s6.812 12.461 17.309 16.1c4.243 1.471 7.6 4.828 9.071 9.071 3.639 10.497 9.494 17.309 16.1 17.309s12.461-6.812 16.1-17.309c1.471-4.243 4.828-7.6 9.071-9.071 10.497-3.638 17.309-9.494 17.309-16.1z" fill="#ffc277"/><path d="m438.354 28.334-181.209 234.78c-10.966 14.208-23.764 26.903-38.059 37.755l-14.241 10.81c-12.682 9.627-24.19 20.708-34.289 33.017l-60.279 73.472-20.994 55.412c-5.446 14.373-24.395 17.487-34.154 5.613l-16.199-19.71c-6.061-7.375-6.065-18.005-.011-25.384l36.52-44.513 60.459-73.691c10.398-12.674 22.29-24.046 35.417-33.867l16.523-12.363c11.51-8.612 22.075-18.419 31.518-29.257l199.046-228.442c4.586-5.263 12.524-5.927 17.921-1.5 5.396 4.428 6.296 12.343 2.031 17.868z" fill="#d09596"/><path d="m436.323 10.467c-1.957-1.605-4.249-2.532-6.593-2.822.802 3.615.055 7.54-2.376 10.69l-181.209 234.78c-10.966 14.208-23.764 26.904-38.059 37.755l-14.241 10.81c-12.682 9.627-24.19 20.708-34.289 33.017l-60.279 73.472-20.995 55.413c-4.263 11.252-16.801 15.602-26.728 11.264l3.574 4.348c9.759 11.875 28.708 8.761 34.154-5.612l20.995-55.413 60.279-73.472c10.099-12.309 21.607-23.391 34.289-33.017l14.241-10.81c14.296-10.852 27.093-23.547 38.059-37.755l181.209-234.78c4.264-5.526 3.365-13.441-2.031-17.868z" fill="#bb696a"/><path d="m188.419 325.605-34.87-28.609c-6.269 5.918-12.172 12.222-17.65 18.899l-60.459 73.691 34.838 28.582 60.279-73.472c5.537-6.75 11.514-13.116 17.862-19.091z" fill="#ffc277"/><g fill="#ff905b"><path d="m107.114 345.687h30v45.062h-30z" transform="matrix(.634 -.773 .773 .634 -240.012 229.073)"/><path d="m135.898 315.895-2.66 3.242 34.838 28.582 2.48-3.023c5.539-6.751 11.515-13.117 17.863-19.092l-34.87-28.609c-6.27 5.919-12.173 12.223-17.651 18.9z"/></g></g><g><path d="m148.351 208.337-3.107 14.674c4.866 1.031 10.097 2.001 15.545 2.882l2.395-14.809c-5.212-.841-10.201-1.766-14.833-2.747z"/><path d="m30.589 135.722c4.925 14.205 13.376 22.352 23.187 22.352s18.262-8.146 23.188-22.353c.715-2.065 2.375-3.726 4.439-4.441 14.206-4.924 22.354-13.375 22.354-23.187s-8.147-18.262-22.354-23.186c-2.064-.716-3.724-2.376-4.44-4.442-4.926-14.205-13.377-22.352-23.188-22.352s-18.262 8.147-23.186 22.353c-.717 2.065-2.376 3.726-4.44 4.441-14.207 4.925-22.354 13.375-22.354 23.186s8.147 18.263 22.354 23.187c2.064.716 3.724 2.376 4.44 4.442zm-11.794-27.629c0-1.914 3.267-5.894 12.266-9.014 6.371-2.208 11.492-7.33 13.7-13.7 3.121-9 7.101-12.267 9.015-12.267s5.894 3.267 9.015 12.266c2.208 6.371 7.329 11.493 13.7 13.701 8.999 3.12 12.266 7.1 12.266 9.014s-3.267 5.895-12.266 9.015c-6.371 2.208-11.493 7.33-13.7 13.7-3.12 8.999-7.101 12.266-9.015 12.266s-5.895-3.267-9.014-12.265c-2.208-6.371-7.33-11.493-13.701-13.701-9-3.12-12.266-7.101-12.266-9.015z"/><path d="m446.279 248.365c-2.065-.717-3.727-2.377-4.442-4.442-4.925-14.205-13.376-22.353-23.187-22.353s-18.262 8.147-23.187 22.354c-.716 2.064-2.377 3.725-4.44 4.441-14.206 4.924-22.354 13.374-22.354 23.186s8.147 18.262 22.352 23.186c2.065.717 3.727 2.377 4.442 4.442 4.925 14.205 13.376 22.353 23.187 22.353s18.262-8.147 23.187-22.354c.716-2.064 2.377-3.725 4.44-4.441 14.206-4.924 22.354-13.374 22.354-23.186s-8.148-18.262-22.352-23.186zm-4.916 32.199c-6.37 2.209-11.491 7.331-13.698 13.7-3.12 9-7.101 12.267-9.015 12.267s-5.895-3.267-9.015-12.266c-2.207-6.37-7.328-11.492-13.7-13.701-8.999-3.12-12.266-7.1-12.266-9.014s3.267-5.894 12.268-9.014c6.37-2.209 11.491-7.331 13.698-13.7 3.12-9 7.101-12.267 9.015-12.267s5.895 3.267 9.015 12.266c2.207 6.37 7.328 11.492 13.7 13.701 8.999 3.12 12.266 7.1 12.266 9.014s-3.267 5.894-12.268 9.014z"/><path d="m230.289 350.877h14.973v28h-14.973z"/><path d="m252.838 386.432h28v14.973h-28z"/><path d="m230.289 409.335h14.973v28h-14.973z"/><path d="m194.713 386.432h28v14.973h-28z"/><path d="m13.275 262.471h15v14.973h-15z"/><path d="m357.65 397.064h15v14.973h-15z"/><path d="m445.921 134.533h15v14.973h-15z"/><path d="m446.366 29.625c4.266-8.391 2.276-18.751-5.287-24.955-8.586-7.047-21.031-6.007-28.332 2.37l-73.366 84.202c-11.924.533-24.194.809-36.668.809-47.564 0-92.206-3.973-125.7-11.187-44.788-9.646-46.8-19.979-46.8-20.079 0-1.634 4.076-7.26 22.691-13.597 17.167-5.845 41.583-10.575 70.606-13.683l-1.596-14.914c-30.109 3.223-55.645 8.201-73.845 14.396-22.109 7.526-32.857 16.619-32.857 27.797 0 14.88 19.182 26.245 58.642 34.743 34.501 7.431 80.264 11.522 128.858 11.522 7.808 0 15.541-.107 23.168-.315l-31.176 35.781c-14.538-1.124-29.649-1.7-44.991-1.7-41.339 0-80.292 4.114-109.682 11.586-33.389 8.487-50.318 20.155-50.318 34.68 0 12.849 13.354 23.513 39.689 31.694l4.451-14.324c-23.05-7.161-29.141-14.493-29.141-17.37 0-1.762 2.193-4.962 8.348-8.661 6.954-4.179 17.558-8.149 30.666-11.481 28.218-7.173 65.857-11.123 105.986-11.123 11.044 0 21.957.31 32.611.908l-53.376 61.259c-10.765-.377-21.312-1.045-31.525-2.007l-1.406 14.934c6.657.627 13.451 1.131 20.347 1.517l-2.662 3.056c-9.078 10.419-19.292 19.899-30.356 28.179l-16.523 12.362c-13.597 10.175-25.951 21.989-36.721 35.115l-96.98 118.204c-8.3 10.115-8.293 24.794.015 34.902l16.199 19.71c5.313 6.467 12.979 10.052 21.125 10.052 1.514 0 3.044-.124 4.578-.376 9.795-1.609 17.741-8.11 21.259-17.393l20.559-54.263 59.499-72.522c9.717-11.843 20.828-22.541 33.025-31.8l14.239-10.811c14.819-11.248 28.096-24.419 39.463-39.146l27.595-35.753c25.696-1.787 49.301-5.247 68.717-10.183 33.389-8.487 50.318-20.155 50.318-34.68 0-18.688-28.446-29.777-56.493-36.169l37.634-48.759c14.743-1.764 28.446-3.983 40.718-6.626 39.46-8.498 58.642-19.863 58.642-34.743 0-12.88-14.387-23.125-43.847-31.158zm-22.311-12.731c1.074-1.233 2.568-1.866 4.075-1.866 1.207 0 2.423.407 3.436 1.237 2.275 1.868 2.649 5.156.851 7.487l-49.57 64.225c-7.27.79-14.786 1.467-22.498 2.032zm-299.291 324.395 9.514-11.597 23.242 19.069-9.515 11.597zm13.729 30.665-9.515 11.597-23.242-19.069 9.515-11.597zm-65.887 106.876c-4.446.735-8.818-.912-11.684-4.397l-16.199-19.71c-3.776-4.595-3.778-11.267-.007-15.865l31.764-38.716 24.875 20.409-5.729 15.121c-4.08-3.626-9.446-5.835-15.321-5.835-12.732 0-23.092 10.359-23.092 23.092h15c0-4.462 3.63-8.092 8.092-8.092s8.092 3.63 8.092 8.092v1.826l-6.127 16.171c-1.599 4.217-5.212 7.172-9.664 7.904zm36.63-71.216-23.242-19.069 10.228-12.467 23.242 19.069zm57.839-70.415-23.244-19.07c3.243-3.819 6.621-7.521 10.146-11.08l23.208 19.041c-3.505 3.577-6.867 7.292-10.11 11.109zm84.132-78.666c-10.559 13.68-22.892 25.914-36.657 36.363l-14.239 10.811c-4.176 3.17-8.219 6.514-12.148 9.987l-23.121-18.969c3.489-3.018 7.072-5.928 10.766-8.692l16.523-12.362c11.911-8.913 22.906-19.119 32.679-30.335l10.588-12.152c4.674.107 9.381.163 14.115.163 7.161 0 14.242-.132 21.222-.375zm143.506-71.451c0 1.762-2.193 4.962-8.348 8.661-6.954 4.179-17.558 8.149-30.666 11.481-15.17 3.856-33.08 6.771-52.619 8.651l39.979-51.798c37.518 7.59 51.654 18.017 51.654 23.005zm-111.765 30.325c-10.78.614-21.902.94-33.236.94-.395 0-.787-.006-1.182-.007l97.963-112.431c8.113-.431 16.054-.982 23.784-1.649zm145.465-136.543c-7.631 1.644-15.845 3.117-24.536 4.415l32.913-42.642c36.664 9.044 38.423 18.055 38.423 18.148 0 .099-2.012 10.433-46.8 20.079z"/></g></g></svg>