<?xml version="1.0"?>
<svg xmlns="http://www.w3.org/2000/svg" viewBox="0 0 64 64" width="512" height="512"><g id="Filled_outline" data-name="Filled outline"><path d="M32,3c-4.971,0-8,8-8,12V40H40V15C40,11,36.971,3,32,3Z" style="fill:#9362f5"/><path d="M32,3c-4.291,0-7.318,6.071-7.945,11a16.673,16.673,0,0,1,15.891,0C39.318,9.024,36.279,3,32,3Z" style="fill:#f1d77e"/><circle cx="32" cy="19" r="3" style="fill:#f1d77e"/><circle cx="32" cy="29" r="3" style="fill:#f1d77e"/><rect x="24" y="40" width="16" height="4" style="fill:#aeddd0"/><polygon points="24 40 12 40 12 36 24 32 24 40" style="fill:#f98c96"/><polygon points="40 40 52 40 52 36 40 32 40 40" style="fill:#f98c96"/><polygon points="16 22 16 27 24 25 24 20 16 22" style="fill:#f98c96"/><polygon points="48 22 48 27 40 25 40 20 48 22" style="fill:#f98c96"/><rect x="31" y="35" width="2" height="5" style="fill:#f1d77e"/><path d="M38,50c0,3.314-6,11-6,11s-6-7.686-6-11a6,6,0,0,1,12,0Z" style="fill:#dd3e46"/><path d="M35.176,47.176C35.176,48.931,32,54,32,54s-3.176-5.069-3.176-6.824a3.176,3.176,0,0,1,6.352,0Z" style="fill:#f1d77e"/><rect x="15" y="43" width="2" height="9" style="fill:#cfdfe8"/><rect x="19" y="43" width="2" height="14" style="fill:#cfdfe8"/><rect x="47" y="43" width="2" height="9" style="fill:#cfdfe8"/><rect x="43" y="43" width="2" height="14" style="fill:#cfdfe8"/><rect x="19" y="37" width="2" height="3" style="fill:#dd3e46"/><rect x="43" y="37" width="2" height="3" style="fill:#dd3e46"/><rect x="15" y="43" width="2" height="9"/><rect x="19" y="43" width="2" height="14"/><rect x="47" y="43" width="2" height="9"/><rect x="43" y="43" width="2" height="14"/><path d="M32,23a4,4,0,1,0-4-4A4,4,0,0,0,32,23Zm0-6a2,2,0,1,1-2,2A2,2,0,0,1,32,17Z"/><path d="M32,33a4,4,0,1,0-4-4A4,4,0,0,0,32,33Zm0-6a2,2,0,1,1-2,2A2,2,0,0,1,32,27Z"/><path d="M41,31.279v-5l8,2V21.219l-8-2V15c0-4.583-3.417-13-9-13s-9,8.417-9,13v4.219l-8,2v7.062l8-2v5l-12,4V41H23v4h4.111A6.973,6.973,0,0,0,25,50c0,3.555,5.576,10.8,6.212,11.615a1,1,0,0,0,1.576,0C33.424,60.8,39,53.555,39,50a6.973,6.973,0,0,0-2.111-5H41V41H53V35.279Zm6-8.5v2.938l-6-1.5V21.281ZM32,4c3.283,0,5.779,4.543,6.655,8.343a17.492,17.492,0,0,0-13.294-.066C26.25,8.491,28.736,4,32,4ZM17,25.719V22.781l6-1.5v2.938ZM25,15c0-.119.011-.249.016-.374a15.674,15.674,0,0,1,13.969.035c.005.113.015.231.015.339V39H33V35H31v4H25ZM21,39V37H19v2H13V36.721l10-3.333V39Zm13.177,8.177c0,.8-1.1,3-2.177,4.877-1.079-1.879-2.177-4.081-2.177-4.877a2.177,2.177,0,1,1,4.354,0ZM37,50c0,1.921-2.8,6.365-5,9.344-2.2-2.978-5-7.421-5-9.344a4.966,4.966,0,0,1,.829-2.746c.067,1.981,2.775,6.4,3.323,7.277a1,1,0,0,0,1.7,0c.548-.877,3.256-5.3,3.323-7.277A4.966,4.966,0,0,1,37,50Zm2-7H25V41H39Zm12-4H45V37H43v2H41V33.388l10,3.333Z"/></g></svg>
